<svg xmlns="http://www.w3.org/2000/svg" width="558.838" height="172.008" viewBox="0 0 558.838 172.008">
  <g id="Group_785" data-name="Group 785" transform="translate(8570.17 318.155)">
    <path id="Path_1464" data-name="Path 1464" d="M-8570,808.5s7.658,108.572,82.016,65.76,139.582,42.471,139.582,42.471-209.494,4.306-217.744-3.945S-8570,808.5-8570,808.5Z" transform="translate(1 -1064)" fill="gray"/>
    <path id="Path_1134" data-name="Path 1134" d="M402.486,218.944c9.886-4.579,8.591-36.547-8.793-42.762-15-5.366-22.847,6.447-16.989,13.477s14.255,9.958,14.449,18.154S394.471,222.649,402.486,218.944Z" transform="translate(-8833.751 -388.427)" fill="#ffc843"/>
    <path id="Path_1465" data-name="Path 1465" d="M402.486,218.944c9.886-4.579,8.591-36.547-8.793-42.762-15-5.366-22.847,6.447-16.989,13.477s14.255,9.958,14.449,18.154S394.471,222.649,402.486,218.944Z" transform="translate(-8587.751 -379.427)" fill="#ffc843"/>
    <path id="Path_1135" data-name="Path 1135" d="M389.911,308.542c10.542,5.269,21.089-2.2,12.889-12.228s-9.962-17.06-12.889-28.191-11.127-4.1-15.231,8.2S378.192,302.685,389.911,308.542Z" transform="translate(-8903.584 -555.23)" fill="#ffc843"/>
    <path id="Path_1136" data-name="Path 1136" d="M460.566,288.508c-1.9,7.069,18.229,11.736,32.565,6.215s16.27-19.289,6.968-22.434-6.287,7.611-17.434,9.155S462.084,282.869,460.566,288.508Z" transform="translate(-8517.124 -552.873)" fill="#ffc843"/>
    <path id="Path_1466" data-name="Path 1466" d="M460.566,288.508c-1.9,7.069,18.229,11.736,32.565,6.215s16.27-19.289,6.968-22.434-6.287,7.611-17.434,9.155S462.084,282.869,460.566,288.508Z" transform="translate(-8874.124 -589.873)" fill="#ffc843"/>
  </g>
</svg>
